<svg xmlns="http://www.w3.org/2000/svg">
    <g id="telegram">
        <rect x="1" y="1" width="32" height="34" fill="#212229"/>
        <rect x="1" y="1" width="32" height="34" stroke="#212229" stroke-width="2"/>
        <path d="M25.6646 9.717L7.93461 16.554C6.72461 17.04 6.73161 17.715 7.71261 18.016L12.2646 19.436L22.7966 12.791C23.2946 12.488 23.7496 12.651 23.3756 12.983L14.8426 20.684H14.8406L14.8426 20.685L14.5286 25.377C14.9886 25.377 15.1916 25.166 15.4496 24.917L17.6606 22.767L22.2596 26.164C23.1076 26.631 23.7166 26.391 23.9276 25.379L26.9466 11.151C27.2556 9.912 26.4736 9.351 25.6646 9.717Z" fill="#E3DEDE"/>

    </g>
    <g id="linkedin">
        <path d="M13 10.001C12.9997 10.5314 12.7888 11.04 12.4135 11.4149C12.0382 11.7898 11.5294 12.0003 10.999 12C10.4686 11.9997 9.95996 11.7888 9.58508 11.4135C9.21019 11.0382 8.99974 10.5294 9 9.999C9.00027 9.46857 9.21123 8.95996 9.58649 8.58508C9.96175 8.21019 10.4706 7.99974 11.001 8C11.5314 8.00027 12.04 8.21123 12.4149 8.58649C12.7898 8.96175 13.0003 9.47057 13 10.001ZM13.06 13.481H9.06V26.001H13.06V13.481ZM19.38 13.481H15.4V26.001H19.34V19.431C19.34 15.771 24.11 15.431 24.11 19.431V26.001H28.06V18.071C28.06 11.901 21 12.131 19.34 15.161L19.38 13.481Z" fill="#E3DEDE"/>

    </g>
    <g id="github">
        <rect x="1" y="1" width="34" height="34" fill="#212229"/>
        <rect x="1" y="1" width="34" height="34" stroke="#212229" stroke-width="2"/>
        <g clip-path="url(#clip0_134_355)">
            <path d="M12.3152 12.176C12.0652 11.538 12.0752 10.809 12.1862 10.142C12.9504 10.371 13.6681 10.7332 14.3062 11.212C14.5862 11.426 14.9532 11.495 15.2952 11.392C16.1728 11.1294 17.0842 10.9973 18.0002 11C18.9612 11 19.8742 11.14 20.7032 11.391C21.0452 11.495 21.4122 11.425 21.6912 11.211C22.329 10.7323 23.0464 10.3701 23.8102 10.141C23.9212 10.808 23.9302 11.537 23.6822 12.174C23.5322 12.558 23.6072 13 23.8902 13.314C24.6142 14.117 25.0002 15.04 25.0002 16C25.0002 18.114 23.0302 20.187 19.8662 20.818C19.0742 20.976 18.7652 21.973 19.3712 22.544C19.7602 22.91 20.0002 23.426 20.0002 24V27C20.0002 27.2652 20.1056 27.5196 20.2931 27.7071C20.4807 27.8946 20.735 28 21.0002 28C21.2654 28 21.5198 27.8946 21.7073 27.7071C21.8949 27.5196 22.0002 27.2652 22.0002 27V24C22.0002 23.43 21.8802 22.888 21.6662 22.397C24.6832 21.35 27.0002 18.993 27.0002 16C27.0002 14.653 26.5162 13.415 25.7132 12.378C25.9232 11.558 25.9042 10.732 25.8242 10.098C25.7532 9.52999 25.6542 8.78599 25.2542 8.34199C24.6592 7.68299 23.6742 8.07099 22.9742 8.30999C22.2233 8.56408 21.5089 8.9154 20.8492 9.35499C19.9183 9.1174 18.961 8.99813 18.0002 8.99999C17.0062 8.99999 16.0472 9.12499 15.1492 9.35599C14.4896 8.91639 13.7751 8.56507 13.0242 8.31099C12.3242 8.07099 11.3382 7.68299 10.7432 8.34199C10.3352 8.79399 10.2502 9.47899 10.1772 10.061L10.1722 10.099C10.0922 10.734 10.0742 11.561 10.2842 12.382C9.48423 13.418 9.00023 14.654 9.00023 16C9.00023 18.992 11.3172 21.35 14.3342 22.397C14.1159 22.8963 14.0022 23.435 14.0002 23.98L13.8322 24.014C13.1152 24.113 12.6562 24.024 12.3442 23.892C11.5842 23.57 11.1922 22.759 10.7142 22.139C10.4162 21.754 9.98223 21.273 9.31623 21.051C9.1916 21.0095 9.06003 20.9929 8.92901 21.0023C8.79799 21.0117 8.6701 21.0467 8.55263 21.1055C8.3154 21.2242 8.13504 21.4323 8.05123 21.684C7.96742 21.9357 7.98703 22.2104 8.10574 22.4476C8.22445 22.6848 8.43254 22.8652 8.68423 22.949C9.24223 23.135 9.62823 24.091 9.98223 24.515C10.3552 24.963 10.8512 25.431 11.5622 25.733C12.2442 26.023 13.0452 26.126 14.0002 26.009V27C14.0002 27.2652 14.1056 27.5196 14.2931 27.7071C14.4807 27.8946 14.735 28 15.0002 28C15.2654 28 15.5198 27.8946 15.7073 27.7071C15.8949 27.5196 16.0002 27.2652 16.0002 27V24C16.0002 23.426 16.2402 22.91 16.6292 22.544C17.2362 21.972 16.9262 20.976 16.1342 20.818C12.9692 20.187 11.0002 18.114 11.0002 16C11.0002 15.042 11.3852 14.119 12.1082 13.316C12.3912 13.002 12.4652 12.56 12.3152 12.176Z" fill="#E3DEDE"/>
        </g>
        <defs>
            <clipPath id="clip0_134_355">
                <rect width="24" height="24" fill="white" transform="translate(6 6)"/>
            </clipPath>
        </defs>
    </g>
</svg>