<svg width="80" height="81" viewBox="0 0 80 81" fill="none" xmlns="http://www.w3.org/2000/svg">
<g clip-path="url(#clip0_2209_134)">
<path d="M61.25 0.5H18.75C8.39466 0.5 0 8.89466 0 19.25V61.75C0 72.1053 8.39466 80.5 18.75 80.5H61.25C71.6053 80.5 80 72.1053 80 61.75V19.25C80 8.89466 71.6053 0.5 61.25 0.5Z" fill="#0277BD"/>
<path d="M16.7978 32.5784L17.6922 42.5603H40.03V32.5784H16.7978ZM40.0297 12.375H15L15.9075 22.3569H40.0297V12.375ZM40.0297 68.8878V58.5025L39.9859 58.5141L28.8691 55.5125L28.1584 47.5512H18.1381L19.5366 63.2244L39.9837 68.9006L40.0297 68.8878Z" fill="#EBEBEB"/>
<path d="M52.2877 42.5603L51.1289 55.5059L39.9961 58.5109V68.8956L60.4595 63.2244L60.6095 61.5378L62.9552 35.2591L63.1986 32.5784L65.0008 12.375H39.9961V22.3569H54.0614L53.1533 32.5784H39.9961V42.5603H52.2877Z" fill="white"/>
</g>
<defs>
<clipPath id="clip0_2209_134">
<rect width="80" height="80" fill="white" transform="translate(0 0.5)"/>
</clipPath>
</defs>
</svg>
