<svg width="80" height="81" viewBox="0 0 80 81" fill="none" xmlns="http://www.w3.org/2000/svg">
<path d="M61.25 0.5H18.75C8.39466 0.5 0 8.89466 0 19.25V61.75C0 72.1053 8.39466 80.5 18.75 80.5H61.25C71.6053 80.5 80 72.1053 80 61.75V19.25C80 8.89466 71.6053 0.5 61.25 0.5Z" fill="#F03C2E"/>
<mask id="mask0_2209_166" style="mask-type:luminance" maskUnits="userSpaceOnUse" x="8" y="9" width="64" height="63">
<path d="M8.75 9.25H71.25V71.75H8.75V9.25Z" fill="white"/>
</mask>
<g mask="url(#mask0_2209_166)">
<path d="M70.0704 37.7169L42.7832 10.4297C42.2206 9.86643 41.5035 9.48281 40.7228 9.32743C39.942 9.17206 39.1327 9.25191 38.3973 9.55687C37.9091 9.75921 37.4655 10.0558 37.092 10.4297L31.4279 16.0937L38.6154 23.2812C40.2873 22.6953 42.2014 23.0956 43.5332 24.4278C44.1673 25.063 44.6099 25.8638 44.8105 26.7386C45.0112 27.6134 44.9618 28.5269 44.6679 29.375L51.5957 36.3028C53.2717 35.7247 55.2051 36.0975 56.5429 37.4394C57.213 38.1092 57.6694 38.9629 57.8541 39.8922C58.0388 40.8215 57.9437 41.7848 57.5807 42.66C57.0941 43.8334 56.1614 44.7656 54.9877 45.2515C53.814 45.7375 52.4954 45.7375 51.3217 45.2516C50.7404 45.0106 50.2123 44.6578 49.7676 44.2128C48.3614 42.8066 48.0139 40.7362 48.7248 39.0037L42.2639 32.5428V49.545C42.7329 49.777 43.1615 50.083 43.5332 50.4512C44.4314 51.3495 44.9361 52.5677 44.9361 53.838C44.9361 55.1082 44.4314 56.3265 43.5332 57.2247C42.635 58.1229 41.4168 58.6275 40.1465 58.6275C38.8762 58.6275 37.658 58.1229 36.7598 57.2247C36.0894 56.5551 35.6328 55.7017 35.4477 54.7725C35.2627 53.8432 35.3576 52.88 35.7204 52.0047C35.9613 51.4235 36.3145 50.8956 36.7598 50.4512C37.2226 49.9903 37.7364 49.6406 38.3282 49.4062V32.2459C37.741 32.0058 37.2077 31.6506 36.7598 31.2012C36.0873 30.5295 35.6301 29.6727 35.4465 28.7401C35.2628 27.8074 35.361 26.8413 35.7285 25.9647L28.6389 18.8794L9.92792 37.5706C9.36464 38.1335 8.98099 38.8508 8.82551 39.6318C8.67003 40.4129 8.74972 41.2224 9.05448 41.9581C9.25702 42.4466 9.55382 42.8903 9.92792 43.2641L37.217 70.5491C37.5906 70.9228 38.0341 71.2194 38.5223 71.4219C39.5086 71.8301 40.6166 71.8301 41.6029 71.4219C42.0911 71.2194 42.5346 70.9228 42.9082 70.5491L70.0704 43.43C70.4444 43.0563 70.7411 42.6125 70.9436 42.1241C71.146 41.6357 71.2503 41.1122 71.2504 40.5834C71.2504 40.0546 71.1462 39.531 70.9438 39.0426C70.7413 38.5541 70.4445 38.1103 70.0704 37.7366" fill="white"/>
</g>
</svg>
