<svg width="67" height="581" viewBox="0 0 67 581" fill="none" xmlns="http://www.w3.org/2000/svg">
<line y1="-0.5" x2="176.71" y2="-0.5" transform="matrix(-3.39464e-05 1 -1 -3.56884e-05 33.8574 72.6923)" stroke="#212229"/>
<line y1="-0.5" x2="176.71" y2="-0.5" transform="matrix(-3.39464e-05 1 -1 -3.56884e-05 33.8574 336.53)" stroke="#212229"/>
<path d="M66.2194 287.444C66.2194 305.471 51.7237 320.077 33.8509 320.077C15.9781 320.077 1.48242 305.471 1.48242 287.444C1.48242 269.418 15.9781 254.811 33.8509 254.811C51.7237 254.811 66.2194 269.418 66.2194 287.444Z" stroke="#42CAF5"/>
<ellipse cx="33.8512" cy="287.444" rx="20.695" ry="20.8616" fill="#212229"/>
<path d="M66.2194 547.601C66.2194 565.627 51.7237 580.234 33.8509 580.234C15.9781 580.234 1.48242 565.627 1.48242 547.601C1.48242 529.574 15.9781 514.968 33.8509 514.968C51.7237 514.968 66.2194 529.574 66.2194 547.601Z" stroke="#212229"/>
<ellipse cx="33.8512" cy="547.601" rx="20.695" ry="20.8616" fill="#212229"/>
<path d="M66.2194 33.4234C66.2194 51.4499 51.7237 66.0565 33.8509 66.0565C15.9781 66.0565 1.48242 51.4499 1.48242 33.4234C1.48242 15.3968 15.9781 0.790222 33.8509 0.790222C51.7237 0.790222 66.2194 15.3968 66.2194 33.4234Z" stroke="#212229"/>
<ellipse cx="33.8512" cy="33.4234" rx="20.695" ry="20.8616" fill="#212229"/>
</svg>
