<svg width="80" height="81" viewBox="0 0 80 81" fill="none" xmlns="http://www.w3.org/2000/svg">
<path d="M11.8977 71.6725L5.64453 1.53813H74.3545L68.0945 71.6619L39.9577 79.4619L11.8977 71.6725Z" fill="#E44D26"/>
<path d="M40 73.5L62.7363 67.1962L68.0856 7.27249H40V73.5Z" fill="#F16529"/>
<path d="M39.9991 33.2844H28.6166L27.8303 24.4756H39.9991V15.8744H18.4297L18.6359 18.1819L20.7497 41.8863H39.9991V33.2844ZM39.9991 55.6238L39.9609 55.6344L30.3816 53.0469L29.7697 46.1875H21.1341L22.3391 59.6931L39.9597 64.5844L39.9991 64.5738V55.6238Z" fill="#EBEBEB"/>
<path d="M39.9707 33.2844V41.8863H50.5626L49.5645 53.0419L39.9707 55.6313V64.5806L57.6051 59.6931L57.7345 58.24L59.7557 35.5944L59.9651 33.2844H57.6476H39.9707ZM39.9707 15.8744V24.4756H60.7482L60.9207 22.5431L61.3132 18.1819L61.5188 15.8744H39.9707Z" fill="white"/>
</svg>
