<svg width="80" height="81" viewBox="0 0 80 81" fill="none" xmlns="http://www.w3.org/2000/svg">
<path d="M0 0.5H80V80.5H0V0.5Z" fill="#F7DF1E"/>
<path d="M21.0355 67.3538L27.1573 63.6488C28.3386 65.7428 29.413 67.5147 31.9902 67.5147C34.4605 67.5147 36.0183 66.5484 36.0183 62.7897V37.2278H43.5361V62.896C43.5361 70.6825 38.9717 74.2269 32.3123 74.2269C26.2983 74.2269 22.8073 71.1122 21.0352 67.3531M47.6195 66.5481L53.7408 63.0041C55.3523 65.6356 57.4467 67.5688 61.1517 67.5688C64.267 67.5688 66.2533 66.0113 66.2533 63.8631C66.2533 61.2856 64.2127 60.3725 60.7758 58.8694L58.8967 58.0631C53.4727 55.7547 49.8748 52.8547 49.8748 46.7328C49.8748 41.0941 54.1708 36.7978 60.8836 36.7978C65.663 36.7978 69.0998 38.4628 71.5698 42.8125L65.7161 46.5719C64.427 44.2628 63.0314 43.35 60.8833 43.35C58.6814 43.35 57.2852 44.7463 57.2852 46.5719C57.2852 48.8272 58.6814 49.7406 61.9033 51.1369L63.7827 51.9422C70.1733 54.6813 73.7711 57.4734 73.7711 63.756C73.7711 70.5228 68.4548 74.2278 61.3127 74.2278C54.3317 74.2278 49.8208 70.8984 47.6192 66.5484" fill="black"/>
</svg>
