<svg width="36" height="36" viewBox="0 0 36 36" fill="none" xmlns="http://www.w3.org/2000/svg">
<rect x="0.5" y="0.5" width="35" height="35" fill="#212229"/>
<rect x="0.5" y="0.5" width="35" height="35" stroke="#212229"/>
<path d="M13 10.001C12.9997 10.5314 12.7888 11.04 12.4135 11.4149C12.0382 11.7898 11.5294 12.0003 10.999 12C10.4686 11.9997 9.95996 11.7888 9.58508 11.4135C9.21019 11.0382 8.99974 10.5294 9 9.999C9.00027 9.46857 9.21123 8.95996 9.58649 8.58508C9.96175 8.21019 10.4706 7.99974 11.001 8C11.5314 8.00027 12.04 8.21123 12.4149 8.58649C12.7898 8.96175 13.0003 9.47057 13 10.001ZM13.06 13.481H9.06V26.001H13.06V13.481ZM19.38 13.481H15.4V26.001H19.34V19.431C19.34 15.771 24.11 15.431 24.11 19.431V26.001H28.06V18.071C28.06 11.901 21 12.131 19.34 15.161L19.38 13.481Z" fill="#E3DEDE"/>
</svg>
