<svg width="80" height="81" viewBox="0 0 80 81" fill="none" xmlns="http://www.w3.org/2000/svg">
<g clip-path="url(#clip0_2209_31)">
<path d="M61.25 0.5H18.75C8.39466 0.5 0 8.89466 0 19.25V61.75C0 72.1053 8.39466 80.5 18.75 80.5H61.25C71.6053 80.5 80 72.1053 80 61.75V19.25C80 8.89466 71.6053 0.5 61.25 0.5Z" fill="#242938"/>
<path d="M37.4618 10.2238C38.9989 9.34407 41.0008 9.34001 42.5364 10.2238C50.2621 14.5894 57.9902 18.9478 65.7146 23.3159C67.1677 24.1344 68.1393 25.7513 68.1246 27.4253V53.6894C68.1355 55.4328 67.0677 57.0884 65.5349 57.8881C57.8346 62.2297 50.138 66.5763 42.4389 70.9178C40.8705 71.8147 38.8283 71.7456 37.3083 70.775C34.9999 69.4369 32.6874 68.105 30.3786 66.7681C29.9068 66.4869 29.3749 66.2631 29.0418 65.8056C29.3364 65.4088 29.863 65.3594 30.2908 65.1859C31.2543 64.8794 32.1396 64.3875 33.0246 63.9103C33.2486 63.7572 33.5218 63.8159 33.7364 63.9528C35.7105 65.0847 37.6674 66.2497 39.648 67.3706C40.0705 67.6147 40.4983 67.2906 40.8596 67.0894C48.4158 62.8184 55.9814 58.5641 63.5368 54.2919C63.8168 54.1572 63.9714 53.86 63.9486 53.5534C63.9539 44.8894 63.9499 36.2241 63.9514 27.5597C63.9833 27.2122 63.7821 26.8922 63.4674 26.7497C55.7939 22.4281 48.1239 18.1003 40.4518 13.7778C40.3189 13.6864 40.1614 13.6373 40.0001 13.637C39.8388 13.6367 39.6812 13.6853 39.548 13.7763C31.8755 18.1003 24.2074 22.4325 16.5349 26.7534C16.2214 26.8963 16.0111 27.2109 16.0483 27.5597C16.0499 36.2241 16.0483 44.8894 16.0483 53.5547C16.035 53.7044 16.0679 53.8545 16.1425 53.9849C16.2172 54.1154 16.33 54.2197 16.4658 54.2841C18.513 55.445 20.563 56.5978 22.6118 57.755C23.7661 58.3759 25.183 58.7453 26.4549 58.2694C27.5768 57.8669 28.3633 56.7216 28.3421 55.5303C28.3527 46.9169 28.3368 38.3022 28.3499 29.6897C28.3218 29.3075 28.6846 28.9916 29.0564 29.0278C30.0402 29.0209 31.0252 29.0144 32.0089 29.0303C32.4196 29.0209 32.7021 29.4328 32.6514 29.8178C32.6474 38.4859 32.6621 47.1541 32.6449 55.8219C32.6474 58.1322 31.6983 60.6459 29.5614 61.7763C26.9293 63.1397 23.6755 62.8506 21.0749 61.5431C18.8236 60.4194 16.6749 59.0931 14.4636 57.8894C12.9268 57.0941 11.8643 55.4319 11.8752 53.6897V27.4253C11.8589 25.7166 12.8696 24.0703 14.3674 23.2638C22.0664 18.9191 29.7643 14.5706 37.4618 10.2238Z" fill="#81CD39"/>
<path d="M44.1784 28.4172C47.5362 28.201 51.1309 28.2891 54.1524 29.9435C56.4921 31.211 57.789 33.8716 57.8302 36.4706C57.7649 36.821 57.3984 37.0144 57.0637 36.9903C56.0896 36.9891 55.1149 37.0038 54.1409 36.9838C53.7274 36.9997 53.4874 36.6188 53.4355 36.2535C53.1555 35.0097 52.4771 33.7781 51.3068 33.1781C49.5099 32.2788 47.4268 32.3241 45.4674 32.3428C44.0371 32.4185 42.499 32.5425 41.2871 33.3835C40.3568 34.0206 40.0743 35.3069 40.4062 36.3428C40.7193 37.0866 41.5777 37.3266 42.2805 37.5478C46.3271 38.6063 50.6152 38.5006 54.5846 39.8935C56.228 40.4613 57.8355 41.5653 58.398 43.286C59.134 45.5922 58.8115 48.3485 57.1705 50.1997C55.8399 51.7231 53.9021 52.5525 51.9693 53.0028C49.398 53.5763 46.7296 53.591 44.1184 53.3363C41.663 53.0563 39.1077 52.4113 37.2124 50.7385C35.5915 49.331 34.7999 47.1378 34.8784 45.0216C34.8971 44.6641 35.253 44.4147 35.5955 44.4441C36.5765 44.4363 37.5577 44.4335 38.5387 44.4457C38.9309 44.4175 39.2212 44.7563 39.2415 45.1256C39.4221 46.3103 39.8674 47.5541 40.9009 48.2563C42.8946 49.5428 45.3968 49.4547 47.6799 49.4907C49.5715 49.4069 51.6949 49.3816 53.2384 48.1313C54.0527 47.4181 54.294 46.225 54.074 45.1988C53.8355 44.3322 52.929 43.9285 52.1505 43.6644C48.1559 42.401 43.8196 42.8594 39.8637 41.4303C38.2574 40.8628 36.7043 39.7897 36.0874 38.1397C35.2265 35.8044 35.6209 32.9156 37.4337 31.1272C39.2012 29.3475 41.7524 28.6622 44.1784 28.4172Z" fill="#81CD39"/>
</g>
<defs>
<clipPath id="clip0_2209_31">
<rect width="80" height="80" fill="white" transform="translate(0 0.5)"/>
</clipPath>
</defs>
</svg>
