<svg width="65" height="64" viewBox="0 0 65 64" fill="none" xmlns="http://www.w3.org/2000/svg">
<path d="M56.8258 14.1025L32.7439 6.1025C32.3319 5.96563 31.8865 5.96563 31.4746 6.1025L7.39267 14.1025C6.99308 14.2353 6.64553 14.4899 6.39925 14.8305C6.15298 15.1711 6.02048 15.5802 6.02051 16V36C6.02051 36.5304 6.23194 37.0391 6.60829 37.4142C6.98465 37.7893 7.49509 38 8.02733 38C8.55958 38 9.07002 37.7893 9.44637 37.4142C9.82273 37.0391 10.0342 36.5304 10.0342 36V18.775L18.4603 21.5725C16.2216 25.177 15.5097 29.5196 16.4809 33.6468C17.4522 37.7739 20.0271 41.3483 23.6404 43.585C19.1251 45.35 15.2218 48.5425 12.3671 52.9075C12.2186 53.1274 12.1155 53.3745 12.0637 53.6345C12.0119 53.8945 12.0125 54.1621 12.0654 54.4219C12.1183 54.6816 12.2225 54.9283 12.3719 55.1476C12.5214 55.3669 12.713 55.5543 12.9358 55.6991C13.1585 55.8439 13.408 55.9432 13.6695 55.9911C13.9311 56.0389 14.1996 56.0345 14.4595 55.9781C14.7194 55.9216 14.9654 55.8143 15.1832 55.6623C15.4011 55.5102 15.5864 55.3166 15.7285 55.0925C19.5089 49.3125 25.4792 46 32.1092 46C38.7393 46 44.7096 49.3125 48.49 55.0925C48.7843 55.5285 49.239 55.8315 49.7557 55.9361C50.2724 56.0406 50.8097 55.9383 51.2513 55.6512C51.693 55.3641 52.0035 54.9154 52.1158 54.402C52.2281 53.8885 52.1331 53.3517 51.8514 52.9075C48.9967 48.5425 45.0784 45.35 40.578 43.585C44.1879 41.3484 46.7604 37.7763 47.7315 33.6522C48.7026 29.5281 47.9929 25.1884 45.7582 21.585L56.8258 17.91C57.2255 17.7773 57.5731 17.5227 57.8195 17.1821C58.0659 16.8415 58.1984 16.4323 58.1984 16.0125C58.1984 15.5927 58.0659 15.1835 57.8195 14.8429C57.5731 14.5023 57.2255 14.2477 56.8258 14.115V14.1025ZM44.1502 30C44.1507 31.8971 43.6999 33.7674 42.8348 35.4573C41.9696 37.1471 40.7147 38.6085 39.1731 39.7215C37.6315 40.8344 35.847 41.5673 33.9662 41.8598C32.0854 42.1524 30.1617 41.9964 28.3531 41.4046C26.5445 40.8128 24.9024 39.802 23.5616 38.4553C22.2209 37.1086 21.2196 35.4642 20.64 33.6572C20.0604 31.8501 19.919 29.9318 20.2273 28.0597C20.5356 26.1876 21.2849 24.4151 22.4138 22.8875L31.4746 25.8875C31.8865 26.0244 32.3319 26.0244 32.7439 25.8875L41.8047 22.8875C43.3294 24.9475 44.1514 27.4402 44.1502 30Z" fill="#E3DEDE"/>
</svg>
