<svg width="80" height="81" viewBox="0 0 80 81" fill="none" xmlns="http://www.w3.org/2000/svg">
<g clip-path="url(#clip0_2209_141)">
<path d="M61.25 0.5H18.75C8.39466 0.5 0 8.89466 0 19.25V61.75C0 72.1053 8.39466 80.5 18.75 80.5H61.25C71.6053 80.5 80 72.1053 80 61.75V19.25C80 8.89466 71.6053 0.5 61.25 0.5Z" fill="#242938"/>
<path d="M63.588 46.965C57.238 48.2744 56.7767 46.1234 56.7767 46.1234C63.4849 36.1697 66.2908 23.5353 63.8692 20.4437C57.2689 12.0062 45.8408 15.9987 45.6496 16.1022L45.588 16.1131C44.1922 15.833 42.7731 15.685 41.3496 15.6712C38.4755 15.6275 36.2958 16.425 34.6392 17.6797C34.6392 17.6797 14.253 9.28187 15.2021 28.2422C15.4042 32.2762 20.9811 58.7841 27.6386 50.7641C30.0908 47.8153 32.4417 45.3387 32.4417 45.3387C33.6064 46.1144 35.0061 46.51 36.4717 46.3672L36.5858 46.2706C36.5524 46.6504 36.568 47.0329 36.6321 47.4087C34.9183 49.3247 35.4236 49.6609 31.9958 50.3662C28.5286 51.0803 30.5677 52.3525 31.8949 52.6866C33.5077 53.0909 37.2386 53.6622 39.7611 50.1334L39.6599 50.5353C40.3324 51.0737 40.8024 54.0356 40.7233 56.7206C40.6442 59.4059 40.5914 61.2472 41.1189 62.6884C41.6461 64.13 42.1736 67.3687 46.678 66.4237C50.4421 65.6175 52.3908 63.5234 52.6655 60.0387C52.8589 57.56 53.2939 57.9247 53.3249 55.71L53.6764 54.6597C54.0783 51.2978 53.7421 50.2147 56.0602 50.72L56.6249 50.7706C58.3324 50.8475 60.5671 50.4959 61.8764 49.8872C64.6999 48.5778 66.3742 46.3891 63.5902 46.965H63.588Z" fill="#336791"/>
<path d="M45.6478 15.6863C44.9446 15.9059 56.9946 11.2809 63.8456 20.0325C66.2628 23.1241 63.4612 35.7584 56.7528 45.7119M40.0315 48.5575C39.8559 54.8109 40.0756 61.1081 40.6865 62.62C41.2971 64.1316 42.609 67.1244 47.1156 66.1619C50.8796 65.3556 52.2506 63.7931 52.844 60.3456L54.2346 49.3222L40.0315 48.5575ZM34.6309 17.2091C34.6309 17.2091 14.2312 8.86845 15.1806 27.8281C15.3828 31.8622 20.9593 58.37 27.6171 50.35C30.0471 47.4209 32.2446 45.1294 32.2446 45.1294L34.6309 17.2091Z" stroke="white" stroke-width="0.471937" stroke-linecap="round" stroke-linejoin="round"/>
<path d="M56.7539 45.7075C56.7539 45.7075 57.1936 47.861 63.5654 46.5469C66.3495 45.9713 64.6729 48.1597 61.8517 49.4694C59.5358 50.546 54.3414 50.8206 54.2558 49.3375C54.0361 45.5031 56.9892 46.6678 56.7761 45.7075C56.5826 44.8419 55.2598 43.9938 54.3898 41.8756C53.6273 40.0297 43.9308 25.8575 57.0792 27.96C57.5626 27.8613 53.6514 15.436 41.3467 15.2556C29.042 15.0753 29.4311 30.3838 29.4311 30.3838" stroke="white" stroke-width="0.471937" stroke-linecap="round" stroke-linejoin="bevel"/>
<path d="M36.5877 47.0216C34.8739 48.9375 35.3792 49.2737 31.9517 49.979C28.4842 50.6931 30.5236 51.9653 31.8505 52.2994C33.4633 52.7037 37.1942 53.275 39.7167 49.7437C40.4858 48.6672 39.7123 46.9534 38.6577 46.5184C38.148 46.3075 37.4667 46.0437 36.5923 47.0237L36.5877 47.0216Z" stroke="white" stroke-width="0.471937" stroke-linejoin="round"/>
<path d="M36.4752 46.9885C36.2992 45.8613 36.8442 44.5231 37.4264 42.9544C38.3011 40.6035 40.3183 38.2522 38.7055 30.7881C37.5036 25.2288 29.433 29.63 29.433 30.3838C29.433 31.1375 29.7977 34.2072 29.3011 37.7775C28.6486 42.4403 32.2674 46.3822 36.4333 45.98" stroke="white" stroke-width="0.471937" stroke-linecap="round" stroke-linejoin="round"/>
<path d="M34.5547 30.2719C34.5172 30.5288 35.0269 31.2166 35.6884 31.3088C36.3497 31.4013 36.9144 30.865 36.9519 30.6056C36.9891 30.3463 36.4794 30.065 35.8181 29.9728C35.1566 29.8806 34.5875 30.0169 34.5547 30.2719Z" fill="white" stroke="white" stroke-width="0.1575"/>
<path d="M54.6917 29.7469C54.7267 30.0037 54.2192 30.6912 53.5579 30.7837C52.8964 30.8759 52.3273 30.34 52.2945 30.0806C52.2614 29.8212 52.767 29.54 53.4283 29.4478C54.0895 29.3556 54.6586 29.4919 54.6917 29.7469Z" fill="white" stroke="white" stroke-width="0.0784688"/>
<path d="M57.0557 27.9647C57.1654 29.9862 56.6204 31.3593 56.5501 33.5106C56.4491 36.635 58.0401 40.2122 55.6426 43.7937" stroke="white" stroke-width="0.471937" stroke-linecap="round" stroke-linejoin="round"/>
</g>
<defs>
<clipPath id="clip0_2209_141">
<rect width="80" height="80" fill="white" transform="translate(0 0.5)"/>
</clipPath>
</defs>
</svg>
