<svg width="80" height="81" viewBox="0 0 80 81" fill="none" xmlns="http://www.w3.org/2000/svg">
<g clip-path="url(#clip0_2209_111)">
<path d="M61.25 0.5H18.75C8.39466 0.5 0 8.89466 0 19.25V61.75C0 72.1053 8.39466 80.5 18.75 80.5H61.25C71.6053 80.5 80 72.1053 80 61.75V19.25C80 8.89466 71.6053 0.5 61.25 0.5Z" fill="#242938"/>
<path d="M39.9999 46.4222C43.2199 46.4222 45.8299 43.8119 45.8299 40.5922C45.8299 37.3725 43.2199 34.7622 39.9999 34.7622C36.7802 34.7622 34.1699 37.3725 34.1699 40.5922C34.1699 43.8119 36.7802 46.4222 39.9999 46.4222Z" fill="#00D8FF"/>
<path d="M40.0006 28.7384C47.8281 28.7384 55.0997 29.8616 60.5825 31.7494C67.1884 34.0234 71.25 37.4706 71.25 40.5922C71.25 43.845 66.9456 47.5072 59.8516 49.8575C54.4884 51.6344 47.4309 52.5619 40.0006 52.5619C32.3825 52.5619 25.1684 51.6912 19.7447 49.8378C12.8828 47.4925 8.75 43.7831 8.75 40.5922C8.75 37.4959 12.6281 34.0753 19.1412 31.8047C24.6444 29.8859 32.0953 28.7384 39.9994 28.7384H40.0006Z" stroke="#00D8FF" stroke-width="0.835406"/>
<path d="M29.6814 34.6994C33.5921 27.9187 38.1974 22.1806 42.5717 18.3744C47.8417 13.7878 52.8574 11.9916 55.5611 13.5506C58.3789 15.1756 59.4011 20.7344 57.8933 28.0537C56.7542 33.5872 54.0311 40.1641 50.3189 46.6009C46.513 53.2003 42.1552 59.0147 37.8405 62.7859C32.3808 67.5584 27.1024 69.2856 24.3383 67.6916C21.6561 66.1459 20.6305 61.0769 21.9174 54.3003C23.0046 48.5744 25.733 41.5466 29.6802 34.6994H29.6814Z" stroke="#00D8FF" stroke-width="0.835406"/>
<path d="M29.6905 46.6181C25.7689 39.845 23.0989 32.9881 21.9846 27.2975C20.643 20.4409 21.5914 15.1987 24.293 13.635C27.1083 12.005 32.4342 13.8956 38.0224 18.8575C42.2474 22.6087 46.5858 28.2516 50.3086 34.6822C54.1255 41.2753 56.9861 47.955 58.0989 53.5762C59.507 60.69 58.3674 66.1253 55.6058 67.7237C52.9264 69.275 48.023 67.6328 42.7946 63.1334C38.3771 59.3322 33.6508 53.4587 29.6905 46.6181Z" stroke="#00D8FF" stroke-width="0.835406"/>
</g>
<defs>
<clipPath id="clip0_2209_111">
<rect width="80" height="80" fill="white" transform="translate(0 0.5)"/>
</clipPath>
</defs>
</svg>
