<svg width="80" height="81" viewBox="0 0 80 81" fill="none" xmlns="http://www.w3.org/2000/svg">
<path d="M61.25 0.5H18.75C8.39466 0.5 0 8.89466 0 19.25V61.75C0 72.1053 8.39466 80.5 18.75 80.5H61.25C71.6053 80.5 80 72.1053 80 61.75V19.25C80 8.89466 71.6053 0.5 61.25 0.5Z" fill="#764ABC"/>
<path d="M52.056 52.2497C54.3625 52.0109 56.1122 50.0225 56.0325 47.6366C55.9532 45.2506 53.9647 43.3419 51.5788 43.3419H51.4197C48.9541 43.4212 47.0453 45.489 47.1247 47.9547C47.2044 49.1478 47.6816 50.1816 48.3972 50.8975C45.6932 56.2262 41.5575 60.1234 35.3538 63.3844C31.1385 65.6112 26.7641 66.4065 22.3897 65.85C18.8107 65.3728 16.0272 63.7819 14.2772 61.1575C11.7322 57.2603 11.4938 53.045 13.641 48.8297C15.1522 45.8072 17.5382 43.5803 19.0494 42.4669C18.7313 41.4331 18.2541 39.6831 18.0153 38.4106C6.48315 46.7619 7.67596 58.0556 11.1753 63.3844C13.8003 67.3609 19.1288 69.8266 25.0144 69.8266C26.605 69.8266 28.1957 69.6675 29.7863 69.2697C39.9669 67.2816 47.6816 61.2369 52.056 52.2497Z" fill="white"/>
<path d="M66.0536 42.3875C60.0092 35.3088 51.1014 31.4119 40.9211 31.4119H39.6486C38.9326 29.98 37.4214 29.0256 35.7514 29.0256H35.5923C33.1267 29.1053 31.2179 31.1731 31.2973 33.6388C31.377 36.0247 33.3651 37.9334 35.7514 37.9334H35.9104C37.6601 37.8541 39.1714 36.7406 39.8076 35.2294H41.2392C47.2836 35.2294 53.0101 36.9791 58.1798 40.3991C62.1564 43.0238 65.0198 46.4438 66.6104 50.5794C67.9626 53.9197 67.8829 57.1806 66.4514 59.9644C64.2245 64.1797 60.4864 66.4863 55.5551 66.4863C52.3739 66.4863 49.3517 65.5319 47.7607 64.8159C46.8861 65.6113 45.2954 66.8838 44.182 67.6791C47.6017 69.2697 51.1014 70.1447 54.4417 70.1447C62.077 70.1447 67.7239 65.9294 69.8714 61.7141C72.1779 57.1013 72.0189 49.1478 66.0536 42.3875Z" fill="white"/>
<path d="M25.6508 53.6019C25.7305 55.9878 27.7186 57.8966 30.1048 57.8966H30.2639C32.7292 57.8169 34.6383 55.7491 34.5586 53.2834C34.4792 50.8975 32.4908 48.9888 30.1048 48.9888H29.9455C29.7867 48.9888 29.548 48.9888 29.3892 49.0684C26.128 43.66 24.7761 37.7744 25.2533 31.4119C25.5714 26.64 27.162 22.5041 29.9458 19.0837C32.252 16.1412 36.7061 14.7097 39.7283 14.63C48.1589 14.4709 51.738 24.9694 51.9764 29.185C53.0105 29.4234 54.7602 29.98 55.9533 30.3778C54.9989 17.4938 47.0455 10.8125 39.4102 10.8125C32.252 10.8125 25.6508 15.9822 23.0261 23.6175C19.3677 33.7978 21.7536 43.5803 26.2073 51.2953C25.8098 51.8519 25.5711 52.7269 25.6508 53.6019Z" fill="white"/>
</svg>
