<svg width="80" height="81" viewBox="0 0 80 81" fill="none" xmlns="http://www.w3.org/2000/svg">
<path d="M64 52.5C58.8 52.5 54.4 55.7 52.8 60.5H36C36 57.7 35.2 55.3 34 53.3L62.4 24.1C63.6 24.1 64.8 24.5 66 24.5C71.6 24.5 76 20.1 76 14.5C76 8.9 71.6 4.5 66 4.5C60.4 4.5 56 8.9 56 14.5C56 15.7 56.4 17.3 56.8 18.5L28.8 47.3C26.4 45.3 23.2 44.5 20 44.5V27.7C24.8 26.1 28 21.7 28 16.5C28 9.7 22.8 4.5 16 4.5C9.2 4.5 4 9.7 4 16.5C4 21.7 7.2 26.1 12 27.7V46.5C7.2 49.3 4 54.5 4 60.1C4 68.9 11.2 76.1 20 76.1C26 76.1 31.2 72.9 33.6 68.1H52.4C54 72.5 58.4 76.1 63.6 76.1C70 76.1 75.6 70.9 75.6 64.1C76 57.7 70.4 52.5 64 52.5Z" fill="white"/>
</svg>
