<svg width="80" height="81" viewBox="0 0 80 81" fill="none" xmlns="http://www.w3.org/2000/svg">
<path d="M45.1244 74.5C45.2294 74.2625 45.4944 74.0975 45.6869 73.8975C48.6244 70.8175 51.5869 67.765 54.4844 64.6475C55.3911 63.8101 56.0917 62.7743 56.5315 61.6211C56.9713 60.4679 57.1383 59.2285 57.0194 58C56.9284 57.474 56.8091 56.9532 56.6619 56.44C55.8719 57.19 55.1369 57.8725 54.3969 58.56C53.2469 59.63 52.1019 60.705 50.9419 61.7625C50.2579 62.4599 49.3784 62.9334 48.4196 63.1205C47.4608 63.3075 46.4678 63.1992 45.5719 62.81C44.6649 62.4768 43.8757 61.8846 43.3024 61.1068C42.7291 60.329 42.3968 59.4 42.3469 58.435C42.32 58.3109 42.2841 58.1889 42.2394 58.07C41.3569 58.82 40.5119 59.51 39.6744 60.22L22.2669 74.97C22.1469 75.0725 22.0169 75.2 21.9044 75.3H45.1119L45.0769 75.2775C44.9519 75.19 45.0169 74.73 45.1244 74.5ZM20.8419 74.5C21.0483 74.2312 21.2974 73.9981 21.5794 73.81L45.6694 53.3725C47.3127 51.9775 48.9485 50.575 50.5769 49.165C50.7781 49.0247 50.9357 48.8307 51.0319 48.605C51.4214 46.9078 51.4766 45.1509 51.1944 43.4325C50.9444 43.6075 50.8094 43.6825 50.6944 43.805C48.7219 45.57 46.7594 47.35 44.7769 49.105C44.1201 49.766 43.2707 50.2017 42.3507 50.3495C41.4307 50.4973 40.4876 50.3496 39.6569 49.9275C38.8094 49.5274 38.1001 48.8842 37.6193 48.0798C37.1384 47.2753 36.9079 46.3459 36.9569 45.41V44.6C36.5944 44.865 36.3294 45.0425 36.0819 45.2425C26.4402 52.9625 16.8002 60.6767 7.16188 68.385C6.72688 68.7325 6.20688 69.5075 5.63688 68.755C5.06688 68.0025 5.93438 67.6925 6.37188 67.3425C16.6469 59.0975 26.9269 50.86 37.2119 42.63C38.8869 41.2875 38.9969 40.725 37.9069 38.5925L37.2569 39.2025C35.4744 40.86 33.6719 42.495 31.9169 44.18C31.197 44.8744 30.2953 45.351 29.3161 45.5549C28.3369 45.7587 27.32 45.6813 26.3828 45.3318C25.4456 44.9823 24.6264 44.3749 24.0198 43.5796C23.4131 42.7844 23.0438 41.8337 22.9544 40.8375C22.6219 41.0875 22.3344 41.27 22.0619 41.4825L6.81187 53.3025C6.54885 53.5605 6.2489 53.7779 5.92187 53.9475C5.67506 54.0221 5.41002 54.0089 5.17188 53.91V75.3125H20.8119C20.7537 75.184 20.7262 75.0437 20.7314 74.9028C20.7366 74.7618 20.7744 74.6239 20.8419 74.5Z" fill="#FFCEBF"/>
<path d="M63.0923 6.5575C62.6673 7.95 62.2548 9.345 61.8823 10.7525C61.5382 11.7471 61.5782 12.8345 61.9945 13.8011C62.4107 14.7678 63.1732 15.544 64.1323 15.9775C67.0658 17.5195 70.3715 18.2122 73.6773 17.9775V6.795C73.6405 6.54983 73.6541 6.29974 73.7173 6.06C73.7873 5.92439 73.8756 5.79905 73.9798 5.6875H63.0823C63.2498 5.8825 63.1923 6.225 63.0923 6.5575Z" fill="#FF6196"/>
<path d="M41.2057 30.58C41.1539 31.8281 40.7173 33.0297 39.9557 34.02C37.2332 37.5343 34.1067 40.7162 30.6407 43.5C30.0818 44.0174 29.3733 44.3444 28.617 44.4343C27.8606 44.5241 27.0953 44.372 26.4307 44C25.7692 43.7174 25.2115 43.2369 24.8341 42.6245C24.4568 42.0121 24.2783 41.2979 24.3232 40.58C24.4033 39.6982 24.7694 38.8669 25.3657 38.2125C29.2415 34.5168 33.4408 31.1759 37.9132 28.23C38.2061 28.0003 38.5638 27.8685 38.9357 27.8532C39.3077 27.838 39.675 27.94 39.9857 28.145C40.3941 28.3986 40.7243 28.7603 40.9397 29.1901C41.155 29.62 41.2471 30.101 41.2057 30.58ZM38.2107 45.7325C38.1527 45.1799 38.2236 44.6213 38.418 44.1008C38.6123 43.5802 38.9247 43.1118 39.3307 42.7325C43.1257 39.2322 47.1972 36.0444 51.5057 33.2C51.6357 33.1175 51.7557 33.035 51.8982 32.95C52.2745 32.6783 52.7305 32.5394 53.1944 32.5553C53.6583 32.5711 54.1038 32.7407 54.4607 33.0375C54.8061 33.33 55.0504 33.724 55.159 34.1634C55.2676 34.6028 55.235 35.0652 55.0657 35.485C54.5206 37.3005 53.5146 38.9438 52.1457 40.255C49.3655 42.9939 46.5316 45.6777 43.6457 48.305C43.2111 48.7519 42.6402 49.0416 42.0229 49.1285C41.4055 49.2154 40.7768 49.0946 40.2357 48.785C39.6671 48.4895 39.183 48.0544 38.8287 47.5204C38.4745 46.9864 38.2618 46.3712 38.2107 45.7325ZM56.2507 47.385C55.5507 48.135 54.8307 48.85 54.1582 49.6175C53.956 49.9141 53.7882 50.2328 53.6582 50.5675C54.0282 50.6775 54.4607 50.9675 54.7607 50.865C56.2882 50.3525 57.7782 49.7375 59.4557 49.09C59.0907 49.93 58.8157 50.705 58.4282 51.415C56.8318 54.0978 54.8327 56.5194 52.5007 58.595C51.614 59.45 50.6932 60.2675 49.7382 61.0475C49.2325 61.4672 48.6243 61.745 47.976 61.8525C47.3276 61.96 46.6624 61.8934 46.0482 61.6595C45.4341 61.4255 44.8931 61.0326 44.4806 60.521C44.0682 60.0093 43.799 59.3973 43.7007 58.7475C43.6606 58.3862 43.6926 58.0205 43.7947 57.6716C43.8968 57.3228 44.0671 56.9976 44.2957 56.715C47.6978 53.0206 51.5858 49.8054 55.8532 47.1575C55.9051 47.1373 55.9601 47.1263 56.0157 47.125L56.2507 47.385Z" fill="#FF87AF"/>
<path d="M61.9843 37.4275L66.2618 18.4275L69.2618 19.13L67.7143 23.8325C66.2693 28.2075 64.8068 32.5825 63.3968 36.9625C63.1218 37.7725 62.7618 37.9225 61.9843 37.4275ZM57.1543 48.6025C57.6068 46.875 58.0568 45.2775 58.4368 43.6625C58.8071 42.0963 59.5116 40.6286 60.5018 39.36C61.1093 38.5625 61.7918 38.88 62.4893 39.0525C63.1343 39.21 63.2968 39.6825 63.3243 40.3025C63.426 42.017 62.9039 43.7104 61.8543 45.07C60.6048 46.619 58.9897 47.8329 57.1543 48.6025Z" fill="#FF6196"/>
<path d="M74.9833 7.73499C75.0207 7.1782 75.0064 6.61916 74.9408 6.06499C74.8892 5.9102 74.7871 5.77724 74.6508 5.68749C74.5399 5.59725 74.41 5.53316 74.2708 5.49999C74.1908 5.48499 74.0783 5.56749 73.9708 5.68499C73.8667 5.79654 73.7784 5.92188 73.7083 6.05749C73.6452 6.29723 73.6316 6.54732 73.6683 6.79249V17.9725C70.3625 18.2071 67.0569 17.5145 64.1233 15.9725C63.1643 15.539 62.4018 14.7628 61.9856 13.7961C61.5693 12.8295 61.5293 11.7421 61.8733 10.7475C62.2458 9.33999 62.6583 7.94499 63.0833 6.55249C63.1833 6.21999 63.2408 5.87749 63.0833 5.68249C62.9957 5.58756 62.8748 5.53022 62.7458 5.52249C62.5807 5.52427 62.4208 5.58051 62.2908 5.68249C62.1039 5.79432 61.9549 5.95983 61.8633 6.15749C61.3633 7.65749 60.9233 9.17249 60.5408 10.7025C60.3964 11.3054 60.3575 11.9288 60.4258 12.545C60.5226 13.6599 60.9372 14.7237 61.6206 15.61C62.3039 16.4963 63.2272 17.1678 64.2808 17.545C64.7533 17.7425 65.0308 17.9375 64.8983 18.56C64.7158 19.35 64.5383 20.14 64.3583 20.9325C63.1333 26.3025 61.915 31.675 60.7033 37.05C60.6692 37.2896 60.5638 37.5135 60.4008 37.6925C59.6022 38.3273 58.9312 39.1077 58.4233 39.9925C57.7762 41.1601 57.3284 42.4275 57.0983 43.7425C57.0542 44.162 56.9026 44.5629 56.6583 44.9067C56.4139 45.2505 56.085 45.5254 55.7033 45.705C54.6608 46.2325 53.7033 46.915 52.5458 47.625C52.623 46.233 52.608 44.8375 52.5008 43.4475C52.4128 43.0199 52.4315 42.5772 52.5553 42.1586C52.6791 41.74 52.9043 41.3583 53.2108 41.0475C54.7356 39.537 55.8225 37.6414 56.3558 35.5625C56.5152 35.0806 56.5588 34.5679 56.4834 34.066C56.4079 33.5641 56.2154 33.087 55.9214 32.6732C55.6274 32.2595 55.2401 31.9207 54.791 31.6843C54.3418 31.448 53.8433 31.3206 53.3358 31.3125C52.5142 31.3033 51.7074 31.5326 51.0133 31.9725C48.6278 33.6015 46.2838 35.2904 43.9833 37.0375C42.6158 38.0675 41.3283 39.2075 40.0033 40.2875C39.9462 40.2262 39.8967 40.1582 39.8558 40.085C39.8305 39.9009 39.7809 39.721 39.7083 39.55C38.6008 37.84 39.3683 36.5975 40.5708 35.32C41.8236 34.0068 42.5159 32.2574 42.5008 30.4425C42.5397 29.5178 42.2501 28.6092 41.6833 27.8775C41.3814 27.5061 41.0094 27.1977 40.5883 26.97C39.9903 26.6427 39.3065 26.5061 38.6287 26.5785C37.9508 26.6509 37.3113 26.9288 36.7958 27.375L36.0983 27.875C34.5058 29.015 32.8933 30.125 31.3608 31.345C29.1236 33.1312 26.9345 34.9768 24.7958 36.88C23.7958 37.7625 23.0658 38.9675 22.0283 39.7875C16.6183 44.06 11.1508 48.255 5.70335 52.4775C5.51603 52.5892 5.3438 52.7245 5.19085 52.88C5.1751 52.9027 5.1617 52.927 5.15085 52.9525C5.03585 53.22 4.93835 53.6625 5.07335 53.825C5.10644 53.8603 5.14643 53.8883 5.19085 53.9075C5.42899 54.0063 5.69403 54.0196 5.94085 53.945C6.26787 53.7753 6.56783 53.558 6.83085 53.3L22.0808 41.48C22.3533 41.2675 22.6408 41.075 22.9733 40.835C23.0627 41.8312 23.4321 42.7818 24.0387 43.5771C24.6454 44.3723 25.4646 44.9798 26.4018 45.3293C27.3389 45.6788 28.3558 45.7561 29.3351 45.5523C30.3143 45.3485 31.2159 44.8719 31.9358 44.1775C33.6858 42.4925 35.4933 40.8575 37.2758 39.2L37.9258 38.59C39.0158 40.7225 38.9058 41.285 37.2308 42.6275C26.9375 50.8642 16.6517 59.1025 6.37335 67.3425C5.93585 67.6925 5.07085 68.01 5.63835 68.755C6.20585 69.5 6.72835 68.7325 7.16335 68.385C16.8067 60.6833 26.4433 52.9717 36.0733 45.25C36.3233 45.05 36.5858 44.8725 36.9483 44.6075V45.4175C36.8993 46.3534 37.1299 47.2827 37.6107 48.0872C38.0915 48.8917 38.8008 49.5349 39.6483 49.935C40.4791 50.357 41.4222 50.5048 42.3422 50.357C43.2622 50.2092 44.1116 49.7735 44.7683 49.1125C46.7508 47.3625 48.7133 45.5775 50.6858 43.8125C50.8108 43.7 50.9558 43.615 51.1858 43.44C51.468 45.1584 51.4128 46.9152 51.0233 48.6125C50.9272 48.8381 50.7695 49.0322 50.5683 49.1725C48.9383 50.5808 47.3025 51.9833 45.6608 53.38L21.5808 73.82C21.2989 74.0081 21.0498 74.2412 20.8433 74.51C20.7775 74.6326 20.7405 74.7687 20.7353 74.9078C20.7301 75.0469 20.7568 75.1853 20.8133 75.3125C20.9263 75.3971 21.0569 75.4552 21.1954 75.4825C21.3339 75.5098 21.4767 75.5055 21.6133 75.47C21.7212 75.4387 21.8204 75.3831 21.9033 75.3075C22.0283 75.2075 22.1533 75.08 22.2658 74.9775L39.6733 60.2275C40.5108 59.5175 41.3558 58.8175 42.2383 58.0775C42.283 58.1964 42.319 58.3184 42.3458 58.4425C42.3958 59.4075 42.7281 60.3365 43.3014 61.1143C43.8747 61.892 44.6639 62.4843 45.5708 62.8175C46.4668 63.2067 47.4598 63.315 48.4186 63.1279C49.3774 62.9409 50.2568 62.4674 50.9408 61.77C52.1008 60.7125 53.2458 59.6375 54.3958 58.5675C55.1458 57.88 55.8708 57.19 56.6608 56.4475C56.808 56.9607 56.9274 57.4814 57.0183 58.0075C57.1333 59.2319 56.9643 60.4664 56.5247 61.615C56.085 62.7635 55.3865 63.7953 54.4833 64.63C51.5858 67.75 48.6233 70.8025 45.6858 73.88C45.4933 74.08 45.2283 74.245 45.1233 74.4825C45.0183 74.72 44.9508 75.185 45.0758 75.285L45.1108 75.3075C45.373 75.435 45.6678 75.4795 45.9558 75.435C46.0366 75.4184 46.1085 75.3731 46.1583 75.3075C46.2283 75.235 46.2958 75.145 46.3633 75.0775C48.7433 72.6175 51.1358 70.17 53.4983 67.6925C54.452 66.7263 55.3485 65.7054 56.1833 64.635C57.272 63.4298 57.9938 61.9388 58.264 60.3374C58.5342 58.7359 58.3414 57.0906 57.7083 55.595C57.6403 55.2615 57.7068 54.9147 57.8933 54.63C58.0558 54.35 58.2358 54.0775 58.4208 53.8075C59.0128 53.0389 59.5058 52.199 59.8883 51.3075C60.6276 49.1195 61.7622 47.0858 63.2358 45.3075C63.9133 44.4486 64.3794 43.4424 64.5966 42.3702C64.8137 41.298 64.7758 40.1898 64.4858 39.135C64.3834 38.7339 64.3834 38.3136 64.4858 37.9125C65.7508 33.995 67.0533 30.09 68.3433 26.1825L70.0683 20.9475L70.6008 19.33C71.7358 19.33 72.8058 19.3075 73.8708 19.33C74.7558 19.355 75.0258 18.94 75.0158 18.08C74.9633 14.63 74.9833 11.1825 74.9833 7.73499ZM30.6408 43.5C30.0819 44.0174 29.3735 44.3445 28.6171 44.4343C27.8608 44.5241 27.0954 44.3721 26.4308 44C25.7694 43.7174 25.2116 43.2369 24.8343 42.6245C24.4569 42.0121 24.2784 41.2979 24.3233 40.58C24.4034 39.6983 24.7695 38.8669 25.3658 38.2125C29.2417 34.5168 33.441 31.1759 37.9133 28.23C38.1574 28.0574 38.4351 27.9382 38.7283 27.88C38.925 27.8437 39.1267 27.8437 39.3233 27.88C39.5589 27.9259 39.7836 28.0158 39.9858 28.145C40.3947 28.3988 40.7251 28.7609 40.9405 29.1912C41.1559 29.6215 41.2477 30.1031 41.2058 30.5825C41.154 31.8307 40.7174 33.0322 39.9558 34.0225C37.2332 37.536 34.1067 40.717 30.6408 43.5ZM43.6408 48.3225C43.2062 48.7694 42.6353 49.0592 42.018 49.146C41.4007 49.2329 40.772 49.1121 40.2308 48.8025C39.6612 48.5064 39.1764 48.0701 38.8221 47.5347C38.4679 46.9993 38.2558 46.3825 38.2058 45.7425C38.1478 45.1899 38.2188 44.6314 38.4131 44.1108C38.6074 43.5902 38.9199 43.1219 39.3258 42.7425C43.1208 39.2423 47.1924 36.0544 51.5008 33.21C51.6308 33.1275 51.7508 33.045 51.8933 32.96C52.2697 32.6883 52.7257 32.5495 53.1896 32.5653C53.6535 32.5811 54.0989 32.7508 54.4558 33.0475C54.8012 33.34 55.0456 33.734 55.1542 34.1734C55.2628 34.6128 55.2301 35.0752 55.0608 35.495C54.5158 37.3105 53.5098 38.9538 52.1408 40.265C49.3833 43.02 46.5158 45.6725 43.6458 48.3125L43.6408 48.3225ZM58.4183 51.425C56.8242 54.1036 54.8285 56.5217 52.5008 58.595C51.6142 59.45 50.6933 60.2675 49.7383 61.0475C49.2326 61.4672 48.6245 61.745 47.9761 61.8525C47.3278 61.9601 46.6625 61.8934 46.0484 61.6595C45.4342 61.4255 44.8932 61.0326 44.4808 60.521C44.0683 60.0093 43.7992 59.3973 43.7008 58.7475C43.6608 58.3862 43.6927 58.0205 43.7948 57.6717C43.897 57.3228 44.0673 56.9976 44.2958 56.715C47.6979 53.0206 51.5859 49.8054 55.8533 47.1575C55.9052 47.1374 55.9602 47.1264 56.0158 47.125L56.2658 47.375C55.5658 48.125 54.8458 48.84 54.1733 49.6075C53.9711 49.9041 53.8034 50.2229 53.6733 50.5575C54.0433 50.6675 54.4758 50.9575 54.7758 50.855C55.9833 50.45 57.1708 49.98 58.4433 49.48L59.4708 49.08C59.0858 49.93 58.8108 50.705 58.4233 51.415L58.4183 51.425ZM61.8508 45.0875C60.9183 46.2747 59.7495 47.2554 58.4183 47.9675C58.0067 48.1975 57.5842 48.4125 57.1508 48.6125C57.5958 46.91 58.0408 45.3325 58.4183 43.7375L58.4333 43.6725C58.8037 42.1063 59.5081 40.6387 60.4983 39.37C61.1058 38.5725 61.7883 38.89 62.4858 39.0625C63.1308 39.22 63.2933 39.6925 63.3208 40.3125C63.4234 42.0256 62.903 43.7179 61.8558 45.0775L61.8508 45.0875ZM67.7008 23.8375C66.2558 28.2125 64.7933 32.5875 63.3833 36.9675C63.1183 37.79 62.7583 37.94 61.9808 37.445L65.6883 20.9625L66.2583 18.4325L69.2583 19.135L68.6558 20.9625L67.7008 23.8375Z" fill="black"/>
</svg>
