<svg width="34" height="36" viewBox="0 0 34 36" fill="none" xmlns="http://www.w3.org/2000/svg">
<rect x="1" y="1" width="32" height="34" fill="#212229"/>
<rect x="1" y="1" width="32" height="34" stroke="#212229" stroke-width="2"/>
<path d="M25.6646 9.717L7.93461 16.554C6.72461 17.04 6.73161 17.715 7.71261 18.016L12.2646 19.436L22.7966 12.791C23.2946 12.488 23.7496 12.651 23.3756 12.983L14.8426 20.684H14.8406L14.8426 20.685L14.5286 25.377C14.9886 25.377 15.1916 25.166 15.4496 24.917L17.6606 22.767L22.2596 26.164C23.1076 26.631 23.7166 26.391 23.9276 25.379L26.9466 11.151C27.2556 9.912 26.4736 9.351 25.6646 9.717Z" fill="#E3DEDE"/>
</svg>
