<svg width="80" height="80" viewBox="0 0 80 80" fill="none" xmlns="http://www.w3.org/2000/svg">
<path d="M76.2514 0H3.74857C1.67829 0 0 1.67829 0 3.74857V76.2514C0 78.3217 1.67829 80 3.74857 80H76.2514C78.3217 80 80 78.3217 80 76.2514V3.74857C80 1.67829 78.3217 0 76.2514 0Z" fill="#3178C6"/>
<path fill-rule="evenodd" clip-rule="evenodd" d="M50.6113 61.064V68.734C52.0048 69.4218 53.49 69.9059 55.0213 70.1715C56.7907 70.4982 58.5869 70.6589 60.3863 70.6515C62.14 70.6598 63.8897 70.483 65.6063 70.124C67.1475 69.8126 68.6179 69.2193 69.9438 68.374C71.1746 67.5795 72.189 66.492 72.8963 65.209C74.1628 62.5523 74.3299 59.5032 73.3612 56.724C72.9525 55.6847 72.3434 54.7359 71.5688 53.9315C70.7372 53.0762 69.7926 52.3385 68.7612 51.739C67.5739 51.0436 66.3401 50.4305 65.0688 49.904C64.0688 49.489 63.1688 49.0857 62.3688 48.694C61.6582 48.3538 60.9782 47.9532 60.3363 47.4965C59.8335 47.144 59.3968 46.7056 59.0462 46.2015C58.7434 45.7438 58.5857 45.2053 58.5938 44.6565C58.5871 44.1514 58.7278 43.6553 58.9988 43.229C59.293 42.7828 59.6855 42.41 60.1463 42.139C60.7094 41.8074 61.3222 41.5685 61.9613 41.4315C62.7458 41.2572 63.5477 41.1733 64.3512 41.1815C65.0271 41.1838 65.702 41.2323 66.3713 41.3265C67.094 41.4242 67.809 41.5721 68.5113 41.769C69.2255 41.967 69.9241 42.2177 70.6012 42.519C71.2583 42.8119 71.8869 43.1651 72.4788 43.574V36.4165C71.2465 35.9503 69.9687 35.6151 68.6662 35.4165C67.0935 35.1877 65.5055 35.0798 63.9162 35.094C62.179 35.0847 60.4469 35.2819 58.7563 35.6815C57.2281 36.0307 55.7751 36.6514 54.4663 37.514C53.2504 38.3239 52.2465 39.4135 51.5387 40.6915C50.7887 42.1107 50.4175 43.6994 50.4612 45.304C50.4059 47.426 51.1048 49.4988 52.4338 51.154C54.0642 52.9892 56.1202 54.3962 58.4212 55.2515C59.4712 55.6848 60.4504 56.109 61.3588 56.524C62.1783 56.8887 62.966 57.321 63.7138 57.8165C64.3169 58.2088 64.8465 58.7038 65.2787 59.279C65.6588 59.8007 65.8604 60.4311 65.8537 61.0765C65.8572 61.5602 65.733 62.0362 65.4938 62.4565C65.2279 62.9082 64.8543 63.287 64.4063 63.559C63.8457 63.9008 63.2324 64.1474 62.5913 64.289C61.7561 64.4757 60.9019 64.5638 60.0462 64.5515C58.367 64.5484 56.7012 64.2523 55.1237 63.6765C53.4758 63.0818 51.9475 62.197 50.6113 61.064ZM37.7262 41.969H47.7262V35.6515H19.8438V41.969H29.7987V70.104H37.7262V41.969Z" fill="white"/>
</svg>
